<svg width="82" height="25" viewBox="0 0 82 25" fill="none" xmlns="http://www.w3.org/2000/svg">
<path d="M17.2656 1.25V3.71875H6.85938V1.25H17.2656ZM19.8594 1.25V24H16.8438V1.25H19.8594ZM5.82812 1.25H8.82812L8.3125 12.3906C8.23958 13.9948 8.11458 15.4271 7.9375 16.6875C7.77083 17.9375 7.53125 19.026 7.21875 19.9531C6.90625 20.8698 6.5 21.6302 6 22.2344C5.5 22.8281 4.88542 23.2708 4.15625 23.5625C3.4375 23.8542 2.57292 24 1.5625 24H0.75V21.5469L1.375 21.5C1.95833 21.4583 2.45833 21.3281 2.875 21.1094C3.30208 20.8802 3.66146 20.5365 3.95312 20.0781C4.25521 19.6198 4.5 19.026 4.6875 18.2969C4.875 17.5677 5.02083 16.6771 5.125 15.625C5.23958 14.5625 5.32812 13.3229 5.39062 11.9062L5.82812 1.25ZM42.8125 11.9062V13.3438C42.8125 15.0521 42.599 16.5833 42.1719 17.9375C41.7448 19.2917 41.1302 20.4427 40.3281 21.3906C39.526 22.3385 38.5625 23.0625 37.4375 23.5625C36.3229 24.0625 35.0729 24.3125 33.6875 24.3125C32.3438 24.3125 31.1094 24.0625 29.9844 23.5625C28.8698 23.0625 27.901 22.3385 27.0781 21.3906C26.2656 20.4427 25.6354 19.2917 25.1875 17.9375C24.7396 16.5833 24.5156 15.0521 24.5156 13.3438V11.9062C24.5156 10.1979 24.7344 8.67188 25.1719 7.32812C25.6198 5.97396 26.25 4.82292 27.0625 3.875C27.875 2.91667 28.8385 2.1875 29.9531 1.6875C31.0781 1.1875 32.3125 0.9375 33.6562 0.9375C35.0417 0.9375 36.2917 1.1875 37.4062 1.6875C38.5312 2.1875 39.4948 2.91667 40.2969 3.875C41.1094 4.82292 41.7292 5.97396 42.1562 7.32812C42.5938 8.67188 42.8125 10.1979 42.8125 11.9062ZM39.8281 13.3438V11.875C39.8281 10.5208 39.6875 9.32292 39.4062 8.28125C39.1354 7.23958 38.7344 6.36458 38.2031 5.65625C37.6719 4.94792 37.0208 4.41146 36.25 4.04688C35.4896 3.68229 34.625 3.5 33.6562 3.5C32.7188 3.5 31.8698 3.68229 31.1094 4.04688C30.3594 4.41146 29.7135 4.94792 29.1719 5.65625C28.6406 6.36458 28.2292 7.23958 27.9375 8.28125C27.6458 9.32292 27.5 10.5208 27.5 11.875V13.3438C27.5 14.7083 27.6458 15.9167 27.9375 16.9688C28.2292 18.0104 28.6458 18.8906 29.1875 19.6094C29.7396 20.3177 30.3906 20.8542 31.1406 21.2188C31.901 21.5833 32.75 21.7656 33.6875 21.7656C34.6667 21.7656 35.5365 21.5833 36.2969 21.2188C37.0573 20.8542 37.6979 20.3177 38.2188 19.6094C38.75 18.8906 39.151 18.0104 39.4219 16.9688C39.6927 15.9167 39.8281 14.7083 39.8281 13.3438ZM61.4375 1.25V3.71875H50.4688V24H47.4688V1.25H61.4375ZM81.5938 11.9062V13.3438C81.5938 15.0521 81.3802 16.5833 80.9531 17.9375C80.526 19.2917 79.9115 20.4427 79.1094 21.3906C78.3073 22.3385 77.3438 23.0625 76.2188 23.5625C75.1042 24.0625 73.8542 24.3125 72.4688 24.3125C71.125 24.3125 69.8906 24.0625 68.7656 23.5625C67.651 23.0625 66.6823 22.3385 65.8594 21.3906C65.0469 20.4427 64.4167 19.2917 63.9688 17.9375C63.5208 16.5833 63.2969 15.0521 63.2969 13.3438V11.9062C63.2969 10.1979 63.5156 8.67188 63.9531 7.32812C64.401 5.97396 65.0312 4.82292 65.8438 3.875C66.6562 2.91667 67.6198 2.1875 68.7344 1.6875C69.8594 1.1875 71.0938 0.9375 72.4375 0.9375C73.8229 0.9375 75.0729 1.1875 76.1875 1.6875C77.3125 2.1875 78.276 2.91667 79.0781 3.875C79.8906 4.82292 80.5104 5.97396 80.9375 7.32812C81.375 8.67188 81.5938 10.1979 81.5938 11.9062ZM78.6094 13.3438V11.875C78.6094 10.5208 78.4688 9.32292 78.1875 8.28125C77.9167 7.23958 77.5156 6.36458 76.9844 5.65625C76.4531 4.94792 75.8021 4.41146 75.0312 4.04688C74.2708 3.68229 73.4062 3.5 72.4375 3.5C71.5 3.5 70.651 3.68229 69.8906 4.04688C69.1406 4.41146 68.4948 4.94792 67.9531 5.65625C67.4219 6.36458 67.0104 7.23958 66.7188 8.28125C66.4271 9.32292 66.2812 10.5208 66.2812 11.875V13.3438C66.2812 14.7083 66.4271 15.9167 66.7188 16.9688C67.0104 18.0104 67.4271 18.8906 67.9688 19.6094C68.5208 20.3177 69.1719 20.8542 69.9219 21.2188C70.6823 21.5833 71.5312 21.7656 72.4688 21.7656C73.4479 21.7656 74.3177 21.5833 75.0781 21.2188C75.8385 20.8542 76.4792 20.3177 77 19.6094C77.5312 18.8906 77.9323 18.0104 78.2031 16.9688C78.474 15.9167 78.6094 14.7083 78.6094 13.3438Z" fill="white"/>
</svg>
